<svg xmlns="http://www.w3.org/2000/svg" xmlns:xlink="http://www.w3.org/1999/xlink" viewBox="0 0 205.7 115.61"><defs><style>.cls-1{isolation:isolate;}.cls-2{fill:url(#Degradado_sin_nombre_8);}.cls-3{fill:url(#Degradado_sin_nombre_10);}.cls-4{fill:#f9ecca;}.cls-5{mix-blend-mode:screen;}.cls-6{fill:url(#Degradado_sin_nombre_7);}.cls-7{fill:url(#Degradado_sin_nombre_7-2);}</style><linearGradient id="Degradado_sin_nombre_8" x1="13.98" y1="13.84" x2="43.68" y2="65.28" gradientUnits="userSpaceOnUse"><stop offset="0" stop-color="#1764bd"/><stop offset="0.18" stop-color="#1c60b8"/><stop offset="0.41" stop-color="#2b55aa"/><stop offset="0.65" stop-color="#434292"/><stop offset="0.9" stop-color="#652971"/><stop offset="1" stop-color="#741d62"/></linearGradient><linearGradient id="Degradado_sin_nombre_10" x1="161.4" y1="12.62" x2="194.85" y2="70.55" gradientUnits="userSpaceOnUse"><stop offset="0" stop-color="#1764bd"/><stop offset="0.2" stop-color="#1b61b9"/><stop offset="0.41" stop-color="#2957ac"/><stop offset="0.63" stop-color="#3e4697"/><stop offset="0.86" stop-color="#5c2f79"/><stop offset="1" stop-color="#741d62"/></linearGradient><linearGradient id="Degradado_sin_nombre_7" x1="31.21" y1="20.77" x2="35.79" y2="20.77" gradientUnits="userSpaceOnUse"><stop offset="0" stop-color="#00d3cd"/><stop offset="1" stop-color="#0077d5"/></linearGradient><linearGradient id="Degradado_sin_nombre_7-2" x1="170.41" y1="22.43" x2="174.97" y2="22.43" xlink:href="#Degradado_sin_nombre_7"/></defs><title>gfasRecurso 22</title><g class="cls-1"><g id="Capa_2" data-name="Capa 2"><g id="Capa_1-2" data-name="Capa 1"><path class="cls-2" d="M34.34,69.73c-.29.57-1.71,3-4.5,2.42-5.4-1.1-18.94-6-19.07-6l-.26-.08c-.74-.19-3-1.11-3.64-2.32a1.5,1.5,0,0,1-.07-1.29c2-6.81,16.69-50.93,16.84-51.38l1.11-3.36c.78-.64,2.47-1.74,4.26-1C33.46,8.5,47.62,13.48,49.17,14a3.58,3.58,0,0,1,1.95,4.61C49.51,24.53,35.41,66.53,34.34,69.73Z"/><path class="cls-3" d="M196.83,69.37c-4.08,1.69-15,3.43-18.82,4l-.32,0-.29.1c-.9.3-3.15.73-4.34.12a1.48,1.48,0,0,1-.77-1c-2.15-6.78-14.76-51.53-14.89-52l-1-3.4c.28-1,1.07-2.83,2.95-3.24,4.73-1,19.45-4.9,20.83-5.26.62-.12,3.11-.39,4.17,2.72,2,5.79,13.9,50.05,14.8,53.38C199.28,65.61,199.4,68.3,196.83,69.37Z"/><path d="M205.55,63.65l-.06-.29c-.52-2-12.87-47.81-15-54a10.12,10.12,0,0,0-11.82-7l-.14,0c-.15,0-15.9,4.19-20.62,5.21a10.21,10.21,0,0,0-7,5.69l-10.65,1.54L124.05,6.9c-1.21-.66-7.6-3.67-22.62-2.58A33.69,33.69,0,0,0,85.87,9.6L58.24,10.82a3.25,3.25,0,0,0-2.18,1A10.65,10.65,0,0,0,51.43,8L51.3,8c-.15,0-15.52-5.45-20-7.25-5.29-2.13-10,.92-12,3.06l-.48.52L17.27,9.11C16.67,10.93,2.43,53.78.37,60.69A8,8,0,0,0,1,67c2,3.65,6.51,5.12,7.51,5.41,1.41.5,14.21,5,19.85,6.21a10.76,10.76,0,0,0,2.2.23c5.25,0,8.55-4.07,9.64-6.49l.12-.31c.1-.3.58-1.7,1.3-3.87,3,3.49,8,9.24,12.49,14.11,5.89,6.47,30.75,28,35.25,31.19a11,11,0,0,0,6.45,2.09A11.58,11.58,0,0,0,98,115.4a13.07,13.07,0,0,0,8.39-5.78,11.76,11.76,0,0,0,1.25-2.66c.9.78,1.63,1.4,2.15,1.83a13.37,13.37,0,0,0,8.5,3c.5,0,1,0,1.5-.08a12.56,12.56,0,0,0,8.63-4.68,15.23,15.23,0,0,0,2.88-5.67,14.49,14.49,0,0,0,2.72.27A13,13,0,0,0,143.94,97a13.44,13.44,0,0,0,3.58-7.65c.38,0,.77.06,1.16.06a11.52,11.52,0,0,0,9.12-4.58,13,13,0,0,0,3-6.93l7.06.07a8.06,8.06,0,0,0,2.15,1.59,10.25,10.25,0,0,0,4.6,1,15.75,15.75,0,0,0,4.45-.67c2.13-.3,14.84-2.16,20.16-4.37C205.42,72.92,206.07,66.62,205.55,63.65ZM34.19,69.82c-.29.57-1.7,3-4.5,2.43-5.4-1.11-18.94-6-19.07-6l-.26-.08c-.73-.19-3-1.11-3.64-2.31a1.53,1.53,0,0,1-.07-1.3c2-6.81,16.69-50.93,16.84-51.38L24.6,7.82c.78-.65,2.47-1.75,4.26-1,4.45,1.8,18.62,6.78,20.16,7.32a3.58,3.58,0,0,1,2,4.61C49.36,24.62,35.27,66.62,34.19,69.82ZM152.74,80.63a5.43,5.43,0,0,1-6.46,1.75,3.25,3.25,0,0,0-2.39-1.33l-19.4-16.6a3.28,3.28,0,0,0-4.26,5l19.65,16.8.13.11c.3.23.65.47,1,.7a6.85,6.85,0,0,1-1.95,5.54c-3.32,3.67-7.23,2.46-9.25,1.42-1.71-1-11.32-9.63-19.62-17.45a3.28,3.28,0,0,0-4.49,4.77c3.64,3.42,14.59,13.66,19.38,17.32a7.17,7.17,0,0,1-1.83,4.33,6.08,6.08,0,0,1-4.18,2.21,7,7,0,0,1-5.13-1.44c-1.13-.93-3.25-2.78-6.3-5.47-5.13-4.54-11.16-10-11.22-10a3.27,3.27,0,0,0-4.38,4.87c.06,0,4.64,4.17,9.22,8.24a2.44,2.44,0,0,0,.14.46,5.24,5.24,0,0,1-.57,4.32A6.57,6.57,0,0,1,96.74,109a4.39,4.39,0,0,1-3.56-.77C89.1,105.27,64.59,84.11,59,77.92,52.72,71.07,45.28,62.43,44.05,61c4.62-13.84,12-36.19,13.24-40.55a12.23,12.23,0,0,0,.44-3.15,3.5,3.5,0,0,0,.65.07h.15l18.84-.83a50.91,50.91,0,0,0-7.14,9.24c-4,6.84-4.31,18.38,1.7,24,5.51,5.14,12.59,2.15,15.56-.14l13.26-11.7,8.86-1.56,42.48,34.91C152.87,72.07,156.37,76.22,152.74,80.63Zm7-9.33a15.61,15.61,0,0,0-3.16-4.78L111.44,29.38,97.8,31.77,83.43,44.46c-.59.42-4.39,3-7,.49-3.42-3.19-3.14-11.39-.51-15.87A44.21,44.21,0,0,1,88,16.05a3.27,3.27,0,0,0,2.61-1.64,26.87,26.87,0,0,1,11.33-3.56c13.72-1,18.93,1.76,18.94,1.76l18.35,9L150.34,20l.69,2.43c.46,1.65,10.33,36.67,13.95,48.91Zm37-1.87c-4.08,1.69-15,3.43-18.82,4l-.32,0-.29.1c-.9.3-3.15.73-4.34.12a1.49,1.49,0,0,1-.78-1c-2.14-6.78-14.76-51.53-14.88-52l-1-3.4c.29-1,1.07-2.83,3-3.24,4.73-1,19.44-4.9,20.82-5.26.63-.13,3.11-.4,4.17,2.72,2,5.79,13.91,50.05,14.81,53.38C199.21,65.67,199.32,68.36,196.76,69.43Z"/><path d="M33.73,26.17h-.32a5.4,5.4,0,1,1,0-10.79h.32a5.4,5.4,0,0,1,0,10.79Zm-.32-7.52a2.13,2.13,0,0,0,0,4.25h.32a2.13,2.13,0,0,0,0-4.25Z"/><path d="M172.85,27.81h-.31a5.4,5.4,0,0,1,0-10.8h.31a5.4,5.4,0,1,1,0,10.8Zm-.31-7.52a2.13,2.13,0,0,0,0,4.25h.31a2.13,2.13,0,1,0,0-4.25Z"/><path class="cls-4" d="M111.39,29.44,97.74,31.83,83.37,44.52c-.59.42-4.39,3-7,.49-3.42-3.18-3.14-11.39-.51-15.87A44.16,44.16,0,0,1,88.23,15.88a27.71,27.71,0,0,1,13.61-5c13.72-1,18.93,1.76,18.94,1.76l18.35,9,11.15-1.6L151,22.5c.46,1.65,10.33,36.68,14,48.91l-5.2,0a15.43,15.43,0,0,0-3.16-4.77Z"/><path class="cls-4" d="M139.83,86.46c.3.23.65.46,1,.7a6.82,6.82,0,0,1-1.95,5.54c-3.31,3.67-7.23,2.46-9.25,1.42-1.7-1-11.31-9.63-19.62-17.45a3.28,3.28,0,0,0-4.49,4.77c3.64,3.42,14.59,13.66,19.38,17.32a7.1,7.1,0,0,1-1.83,4.33,6.06,6.06,0,0,1-4.17,2.21,7,7,0,0,1-5.13-1.44c-1.13-.94-3.26-2.78-6.31-5.47-5.13-4.54-11.15-10-11.21-10a3.27,3.27,0,0,0-4.38,4.87s4.63,4.17,9.22,8.24a2.64,2.64,0,0,0,.13.46,5.24,5.24,0,0,1-.57,4.32,6.55,6.55,0,0,1-4.11,2.83,4.37,4.37,0,0,1-3.55-.77C88.92,105.39,64.41,84.23,58.78,78,52.55,71.19,45.1,62.55,43.87,61.12,48.5,47.28,55.92,24.93,57.11,20.57a11.81,11.81,0,0,0,.44-3.15,3.51,3.51,0,0,0,.66.07h.14l18.85-.83a50,50,0,0,0-7.14,9.24c-4,6.84-4.32,18.38,1.69,24C77.27,55,84.34,52,87.31,49.72L100.58,38l8.86-1.56,42.48,34.91c.77.82,4.28,5,.64,9.38a5.42,5.42,0,0,1-6.46,1.75,3.23,3.23,0,0,0-2.39-1.33l-19.4-16.6a3.27,3.27,0,0,0-4.25,5l19.64,16.8.13.11"/><g class="cls-5"><path class="cls-6" d="M33.34,18.64a2.13,2.13,0,0,0,0,4.26h.31a2.13,2.13,0,1,0,0-4.26Z"/></g><g class="cls-5"><path class="cls-7" d="M172.54,20.31a2.12,2.12,0,1,0,0,4.24h.31a2.12,2.12,0,1,0,0-4.24Z"/></g></g></g></g></svg>