<svg xmlns="http://www.w3.org/2000/svg" xmlns:xlink="http://www.w3.org/1999/xlink" viewBox="0 0 116.2 116.2"><defs><style>.cls-1{fill:url(#Degradado_sin_nombre_12);}.cls-2{fill:#00e7ff;}.cls-3{fill:#fff;}.cls-4{fill:url(#Degradado_sin_nombre_7);}.cls-5{fill:url(#Degradado_sin_nombre_4);}</style><linearGradient id="Degradado_sin_nombre_12" x1="40.35" y1="-12.21" x2="74.95" y2="47.72" gradientUnits="userSpaceOnUse"><stop offset="0" stop-color="#1764bd"/><stop offset="0.18" stop-color="#1c60b8"/><stop offset="0.41" stop-color="#2c54a9"/><stop offset="0.66" stop-color="#454190"/><stop offset="0.92" stop-color="#68266e"/><stop offset="1" stop-color="#741d62"/></linearGradient><linearGradient id="Degradado_sin_nombre_7" x1="27.12" y1="80.37" x2="64.73" y2="80.37" gradientUnits="userSpaceOnUse"><stop offset="0" stop-color="#00d3cd"/><stop offset="1" stop-color="#0077d5"/></linearGradient><linearGradient id="Degradado_sin_nombre_4" x1="57.37" y1="51.02" x2="77.83" y2="71.48" gradientUnits="userSpaceOnUse"><stop offset="0" stop-color="#1764bd"/><stop offset="1" stop-color="#741d62"/></linearGradient></defs><title>gfasRecurso 13</title><g id="Capa_2" data-name="Capa 2"><g id="Capa_1-2" data-name="Capa 1"><path d="M105.69,0H10.51C2.63,0,0,2.63,0,10.51V116.2H116.2V10.51C116.2,2.63,113.57,0,105.69,0Zm4.76,110.45H5.76V34.31H110.45ZM5.76,27.61V10.51a4.75,4.75,0,0,1,4.75-4.75h95.18a4.76,4.76,0,0,1,4.76,4.75v17.1Z"/><path class="cls-1" d="M5.65,27.55V11.1c0-3,2.13-5.36,4.77-5.36h95.36c2.63,0,4.77,2.4,4.77,5.36V27.17Z"/><circle class="cls-2" cx="20.03" cy="15.27" r="4.76"/><circle class="cls-2" cx="34.31" cy="15.27" r="4.76"/><circle class="cls-2" cx="48.58" cy="15.27" r="4.76"/><rect class="cls-3" x="5.74" y="34.25" width="104.69" height="76.14"/><path class="cls-4" d="M49.61,88.71,46.5,91.79a7,7,0,0,1-9.77,0,6.76,6.76,0,0,1,0-9.6L48.17,70.84C50.54,68.49,55,65,58.25,68.25a3.8,3.8,0,0,0,5.36-5.4c-5.53-5.48-13.69-4.47-20.8,2.59L31.37,76.79a14.36,14.36,0,0,0,0,20.4,14.6,14.6,0,0,0,20.49,0L55,94.1a3.8,3.8,0,1,0-5.36-5.39Z"/><path class="cls-5" d="M84.26,44.63c-5.93-5.89-14.22-6.21-19.72-.76l-3.87,3.85A3.8,3.8,0,1,0,66,53.12l3.87-3.85c2.85-2.82,6.57-1.65,9,.76a6.76,6.76,0,0,1,0,9.61L66.7,71.74c-5.57,5.54-8.19,2.94-9.31,1.83A3.8,3.8,0,1,0,52,79a12,12,0,0,0,8.55,3.8c3.75,0,7.72-1.89,11.48-5.63L84.27,65a14.37,14.37,0,0,0,0-20.41Z"/></g></g></svg>