<svg xmlns="http://www.w3.org/2000/svg" xmlns:xlink="http://www.w3.org/1999/xlink" viewBox="0 0 114.54 115.63"><defs><style>.cls-1{fill:#fff;}.cls-2{fill:url(#Degradado_sin_nombre_12);}.cls-3{fill:url(#Degradado_sin_nombre_7);}</style><linearGradient id="Degradado_sin_nombre_12" x1="-1.45" y1="39.29" x2="112.56" y2="105.11" gradientUnits="userSpaceOnUse"><stop offset="0" stop-color="#1764bd"/><stop offset="0.18" stop-color="#1c60b8"/><stop offset="0.41" stop-color="#2c54a9"/><stop offset="0.66" stop-color="#454190"/><stop offset="0.92" stop-color="#68266e"/><stop offset="1" stop-color="#741d62"/></linearGradient><linearGradient id="Degradado_sin_nombre_7" x1="71.15" y1="74.17" x2="110.67" y2="74.17" gradientUnits="userSpaceOnUse"><stop offset="0" stop-color="#00d3cd"/><stop offset="1" stop-color="#0077d5"/></linearGradient></defs><title>gfasRecurso 14</title><g id="Capa_2" data-name="Capa 2"><g id="Capa_1-2" data-name="Capa 1"><path class="cls-1" d="M2.18,32.39A3.37,3.37,0,0,1,4.84,30L5,30,76.27,2.77h.13l.3-.1a14.18,14.18,0,0,1,4.52-.74h.11a11.62,11.62,0,0,1,8.19,3.39,13.05,13.05,0,0,1,3.73,9.26V43.27Z"/><path d="M81.22,3.87h.15a9.52,9.52,0,0,1,6.77,2.8,11.06,11.06,0,0,1,3.17,7.88V41.1l-83.74-10L76.63,4.7h.09l.59-.2a12.36,12.36,0,0,1,3.91-.63m0-3.87a16.3,16.3,0,0,0-5.13.83h-.18L4.37,28.16A5.54,5.54,0,0,0,0,34.08L95.18,45.45V14.6A14.85,14.85,0,0,0,90.89,4,13.44,13.44,0,0,0,81.37,0h-.15Z"/><path class="cls-2" d="M100.75,32.67H2.37c-.08.22-.16.45-.22.67a4.55,4.55,0,0,0-.22,1.31v67.19A11.86,11.86,0,0,0,13.79,113.7h87a11.85,11.85,0,0,0,11.85-11.86V44.53A11.85,11.85,0,0,0,100.75,32.67Z"/><path d="M100.75,115.63h-87A13.8,13.8,0,0,1,0,101.84V34.65a5.84,5.84,0,0,1,.3-1.86A8.45,8.45,0,0,1,.56,32L1,30.74h99.71a13.81,13.81,0,0,1,13.79,13.79v57.31A13.8,13.8,0,0,1,100.75,115.63Zm-96.88-81v67.23a9.94,9.94,0,0,0,9.92,9.93h87a9.94,9.94,0,0,0,9.92-9.93V44.53a9.93,9.93,0,0,0-9.92-9.92Z"/><path class="cls-3" d="M110.67,56.39V92H79.05a7.9,7.9,0,0,1-7.9-7.9V64.29a7.9,7.9,0,0,1,7.9-7.9Z"/><circle class="cls-1" cx="86.96" cy="74.17" r="5.93"/></g></g></svg>