<svg xmlns="http://www.w3.org/2000/svg" xmlns:xlink="http://www.w3.org/1999/xlink" viewBox="0 0 116.38 116.39"><defs><style>.cls-1{fill:#fff;}.cls-2{fill:url(#Degradado_sin_nombre_12);}.cls-3{fill:url(#Degradado_sin_nombre_12-2);}.cls-4{fill:url(#Degradado_sin_nombre_12-3);}.cls-5{fill:#00e7ff;}</style><linearGradient id="Degradado_sin_nombre_12" x1="30.89" y1="10.9" x2="86.22" y2="106.74" gradientUnits="userSpaceOnUse"><stop offset="0" stop-color="#1764bd"/><stop offset="0.18" stop-color="#1c60b8"/><stop offset="0.41" stop-color="#2c54a9"/><stop offset="0.66" stop-color="#454190"/><stop offset="0.92" stop-color="#68266e"/><stop offset="1" stop-color="#741d62"/></linearGradient><linearGradient id="Degradado_sin_nombre_12-2" x1="46.06" y1="79.81" x2="71.21" y2="79.81" xlink:href="#Degradado_sin_nombre_12"/><linearGradient id="Degradado_sin_nombre_12-3" x1="48.8" y1="47.25" x2="68.47" y2="66.92" xlink:href="#Degradado_sin_nombre_12"/></defs><title>gfasRecurso 23</title><g id="Capa_2" data-name="Capa 2"><g id="Capa_1-2" data-name="Capa 1"><path class="cls-1" d="M58.38,28.07a30,30,0,1,0,30,30A30,30,0,0,0,58.38,28.07Z"/><path class="cls-2" d="M111.91,49.93A9.73,9.73,0,0,0,105,47.06h-4.16a43.76,43.76,0,0,0-4.61-11.13l3-3a9.78,9.78,0,0,0,0-13.83l-1.92-1.92a9.77,9.77,0,0,0-13.82,0l-3,2.94a43.52,43.52,0,0,0-11.13-4.6V11.4a9.79,9.79,0,0,0-9.77-9.78H56.83a9.79,9.79,0,0,0-9.78,9.78v4.18a44.58,44.58,0,0,0-13.41,6.08l-2.52-2.52a9.79,9.79,0,0,0-13.83,0l-1.92,1.92a9.8,9.8,0,0,0,0,13.83l3.5,3.5a44,44,0,0,0-3.29,8.67H11.4a9.79,9.79,0,0,0-9.78,9.78v2.71a9.79,9.79,0,0,0,9.78,9.78h4.17a43.4,43.4,0,0,0,4.61,11.13l-2.95,3a9.77,9.77,0,0,0,0,13.81l1.93,1.94a9.78,9.78,0,0,0,13.83,0l2.94-2.94a43.46,43.46,0,0,0,11.12,4.6V105a9.79,9.79,0,0,0,9.78,9.77h2.72A9.79,9.79,0,0,0,69.33,105v-4.18A43.94,43.94,0,0,0,78,97.52l3.55,3.55a9.77,9.77,0,0,0,13.82,0l1.92-1.92a9.75,9.75,0,0,0,0-13.82l-2.56-2.57a43.72,43.72,0,0,0,6.08-13.42H105a9.79,9.79,0,0,0,9.78-9.78V56.84A9.73,9.73,0,0,0,111.91,49.93ZM58.38,84.81A26.72,26.72,0,1,1,85.06,58.1,26.7,26.7,0,0,1,58.38,84.81Z"/><path class="cls-3" d="M58.64,86.32c-7.29,0-12.58-1.89-12.58-4.49,0-4.2,4.7-8.54,12.58-8.54s12.57,4.34,12.57,8.54C71.21,84.35,65.69,86.32,58.64,86.32Z"/><path d="M58.64,73.74c7.36,0,12.12,4.05,12.12,8.09,0,2-5,4-12.12,4-7.58,0-12.13-2-12.13-4,0-4,4.55-8.09,12.13-8.09m0-.9c-8.47,0-13,4.63-13,9,0,2.91,5.36,4.94,13,4.94,7.42,0,13-2.12,13-4.94,0-4.42-4.88-9-13-9Z"/><path class="cls-4" d="M58.64,71a13.91,13.91,0,1,1,9.84-4.08A13.82,13.82,0,0,1,58.64,71Z"/><path d="M58.64,43.62a13.47,13.47,0,1,1-9.52,4,13.43,13.43,0,0,1,9.52-4m0-.9A14.36,14.36,0,1,0,68.8,46.93a14.24,14.24,0,0,0-10.16-4.21Z"/><path d="M59.56,3.25a8.16,8.16,0,0,1,8.15,8.15v5.45a42.1,42.1,0,0,1,13,5.38l3.84-3.85a8.15,8.15,0,0,1,11.53,0L98,20.3a8.15,8.15,0,0,1,0,11.53l-3.85,3.85a42.14,42.14,0,0,1,5.38,13H105a8.16,8.16,0,0,1,8.16,8.16v2.71A8.16,8.16,0,0,1,105,67.7H99.54a41.9,41.9,0,0,1-6.92,15.23l3.52,3.53a8.15,8.15,0,0,1,0,11.53l-1.92,1.93a8.17,8.17,0,0,1-11.53,0L78.3,95.53a42.32,42.32,0,0,1-10.59,4V105a8.17,8.17,0,0,1-8.16,8.15H56.83A8.16,8.16,0,0,1,48.68,105V99.54a41.9,41.9,0,0,1-13-5.38L31.84,98a8.17,8.17,0,0,1-11.53,0l-1.93-1.93a8.14,8.14,0,0,1,0-11.52l3.85-3.85a41.85,41.85,0,0,1-5.38-13H11.4a8.15,8.15,0,0,1-8.15-8.15V56.84a8.16,8.16,0,0,1,8.15-8.16h5.45a42.27,42.27,0,0,1,4-10.59l-4.34-4.35a8.16,8.16,0,0,1,0-11.53l1.92-1.92a8.15,8.15,0,0,1,11.53,0l3.49,3.48a42.58,42.58,0,0,1,15.22-6.92V11.4a8.16,8.16,0,0,1,8.15-8.15h2.73m0-3.25H56.83a11.42,11.42,0,0,0-11.4,11.4v2.95a46,46,0,0,0-11.57,5.23L32.27,18a11.4,11.4,0,0,0-16.12,0l-1.93,1.92a11.43,11.43,0,0,0,0,16.13l2.68,2.68a46,46,0,0,0-2.56,6.72H11.4A11.41,11.41,0,0,0,0,56.84v2.71A11.41,11.41,0,0,0,11.4,71h2.94a44.66,44.66,0,0,0,3.82,9.24l-2.08,2.07a11.42,11.42,0,0,0,0,16.12L18,100.3a11.41,11.41,0,0,0,16.12,0l2.07-2.08a45.37,45.37,0,0,0,9.23,3.82V105a11.41,11.41,0,0,0,11.4,11.4h2.72A11.41,11.41,0,0,0,71,105V102a45.07,45.07,0,0,0,6.72-2.55l2.73,2.72a11.4,11.4,0,0,0,16.12,0l1.92-1.93a11.38,11.38,0,0,0,0-16.11l-1.63-1.64A45.1,45.1,0,0,0,102.05,71H105a11.41,11.41,0,0,0,11.4-11.4V56.84A11.39,11.39,0,0,0,105,45.44h-2.93a45.22,45.22,0,0,0-3.82-9.24l2.07-2.07a11.41,11.41,0,0,0,0-16.13l-1.93-1.92a11.4,11.4,0,0,0-16.11,0l-2.07,2.07A45.37,45.37,0,0,0,71,14.34V11.4A11.42,11.42,0,0,0,59.56,0Z"/><path class="cls-5" d="M58.38,28.07a30,30,0,1,0,30,30A30,30,0,0,0,58.38,28.07Zm0,55.1A25.08,25.08,0,1,1,83.59,58.1,25.16,25.16,0,0,1,58.38,83.17Z"/></g></g></svg>