<svg xmlns="http://www.w3.org/2000/svg" xmlns:xlink="http://www.w3.org/1999/xlink" viewBox="0 0 149.96 116.11"><defs><style>.cls-1{fill:url(#Degradado_sin_nombre_12);}.cls-2{opacity:0.1;}.cls-2,.cls-3{isolation:isolate;}.cls-3,.cls-5{fill:#fff;}.cls-3{opacity:0.2;}.cls-4{fill:#00e7ff;}</style><linearGradient id="Degradado_sin_nombre_12" x1="40.93" y1="22.25" x2="93.7" y2="75.02" gradientUnits="userSpaceOnUse"><stop offset="0" stop-color="#1764bd"/><stop offset="0.18" stop-color="#1c60b8"/><stop offset="0.41" stop-color="#2c54a9"/><stop offset="0.66" stop-color="#454190"/><stop offset="0.92" stop-color="#68266e"/><stop offset="1" stop-color="#741d62"/></linearGradient></defs><title>gfasRecurso 15</title><g id="Capa_2" data-name="Capa 2"><g id="Capa_1-2" data-name="Capa 1"><path class="cls-1" d="M6.24,57a12.71,12.71,0,0,0,0,18L41,109.7h0a12.73,12.73,0,0,0,18,0l49.65-49.65a15.82,15.82,0,0,0,4.64-11.19V10.55a7.91,7.91,0,0,0-7.91-7.91H67.09A15.84,15.84,0,0,0,55.9,7.28L6.25,56.93ZM86.93,21.11A7.92,7.92,0,1,1,94.84,29,7.92,7.92,0,0,1,86.93,21.11Z"/><path class="cls-2" d="M6.46,56.93v0a12.71,12.71,0,0,0,0,18L41.24,109.7a12.39,12.39,0,0,0,13,3.06,12.71,12.71,0,0,1-5.28-3.06L14.17,74.93h0a12.73,12.73,0,0,1,0-18L63.82,7.28A15.8,15.8,0,0,1,75,2.64H67.09A15.84,15.84,0,0,0,55.9,7.28L6.25,56.93Z"/><path class="cls-3" d="M46,112.76a12.4,12.4,0,0,0,13-3.06l49.65-49.65a15.82,15.82,0,0,0,4.64-11.19V10.55a7.91,7.91,0,0,0-7.91-7.91H97.48a7.92,7.92,0,0,1,7.92,7.91V48.86a15.87,15.87,0,0,1-4.65,11.19L51.1,109.7A12.71,12.71,0,0,1,46,112.76Z"/><path d="M4.51,55.09l0,0a15.37,15.37,0,0,0,0,21.72L39.28,111.6l0,0a15.36,15.36,0,0,0,21.71,0L110.67,62A18.41,18.41,0,0,0,116,48.86V10.55A10.55,10.55,0,0,0,105.4,0H67.14A18.37,18.37,0,0,0,54.06,5.28L4.35,55.09Zm3.75,18,0,0a10.08,10.08,0,0,1,0-14.25L57.91,9.13a13.07,13.07,0,0,1,9.18-3.85H105.4a5.27,5.27,0,0,1,5.27,5.27V48.86A13,13,0,0,1,106.82,58L57.17,107.85a10.56,10.56,0,0,1-14.3,0L8.1,73.08Z"/><path d="M84.29,21.11A10.56,10.56,0,1,0,94.84,10.55,10.55,10.55,0,0,0,84.29,21.11Zm5.28,0a5.28,5.28,0,1,1,5.27,5.27A5.27,5.27,0,0,1,89.57,21.11Z"/><circle class="cls-4" cx="94.84" cy="21.08" r="5.28"/><path d="M133.6,25.35c-4.36,0-8.93-1.69-13.25-5-13-10.08-21.35.24-21.7.68a2.54,2.54,0,1,1-4-3.12c.12-.15,11.82-14.71,28.8-1.58,5.9,4.56,12.24,5.18,17,1.66,3.67-2.73,5.34-7.27,4-10.8a2.54,2.54,0,1,1,4.74-1.82C151.33,11,149,17.91,143.45,22A16.25,16.25,0,0,1,133.6,25.35Z"/><path class="cls-5" d="M76.85,71A2.7,2.7,0,0,1,75,70.21L46.8,43a2.71,2.71,0,0,1,3.75-3.9L78.73,66.32A2.7,2.7,0,0,1,76.85,71Z"/><path class="cls-5" d="M64.19,75.28a2.68,2.68,0,0,1-1.86-.75L42.52,55.68a2.71,2.71,0,0,1,3.73-3.92L66.06,70.62a2.7,2.7,0,0,1-1.87,4.66Z"/></g></g></svg>