<svg xmlns="http://www.w3.org/2000/svg" xmlns:xlink="http://www.w3.org/1999/xlink" viewBox="0 0 135.14 115.42"><defs><style>.cls-1{fill:url(#Degradado_sin_nombre_12);}.cls-2{fill:#00e7ff;}.cls-3{fill:#fff;}</style><linearGradient id="Degradado_sin_nombre_12" x1="29.23" y1="-4.72" x2="107.45" y2="73.49" gradientUnits="userSpaceOnUse"><stop offset="0" stop-color="#1764bd"/><stop offset="0.18" stop-color="#1c60b8"/><stop offset="0.41" stop-color="#2c54a9"/><stop offset="0.66" stop-color="#454190"/><stop offset="0.92" stop-color="#68266e"/><stop offset="1" stop-color="#741d62"/></linearGradient></defs><title>gfasRecurso 5</title><g id="Capa_2" data-name="Capa 2"><g id="Capa_1-2" data-name="Capa 1"><path class="cls-1" d="M13,57.28a32.36,32.36,0,0,1,0-45.79,32.36,32.36,0,0,1,45.79,0L68.34,21l9.52-9.51a32.38,32.38,0,1,1,45.79,45.79L68.34,112.59Z"/><path d="M100.76,4a30.38,30.38,0,0,1,21.48,51.87l-8.1,8.1-45.8,45.8L22.54,64l-8.1-8.1a30.38,30.38,0,1,1,43-43l8.1,8.1,2.83,2.83L71.17,21l8.1-8.1A30.19,30.19,0,0,1,100.76,4m0-4A34.28,34.28,0,0,0,76.45,10.07l-8.11,8.11-8.1-8.11A34.39,34.39,0,0,0,11.61,58.7l8.11,8.1,48.62,48.62L117,66.8l8.1-8.1A34.39,34.39,0,0,0,100.76,0Z"/><path class="cls-2" d="M76.77,92.61,53.24,36.42,35.13,65.24H2.64a3.06,3.06,0,0,1,0-6.07H32.43L54.15,24.6,77.37,80.05,89.46,57.79h41.27a3.07,3.07,0,0,1,0,6.07H92.39Z"/><path class="cls-3" d="M121.79,30.09a2,2,0,0,1-1.92-1.45c-4.15-14.43-18.59-15-18.74-15a2,2,0,0,1,.11-4c.18,0,17.52.68,22.47,17.88A2,2,0,0,1,122.34,30,2.09,2.09,0,0,1,121.79,30.09Z"/></g></g></svg>