<svg xmlns="http://www.w3.org/2000/svg" xmlns:xlink="http://www.w3.org/1999/xlink" viewBox="0 0 97.41 114.51"><defs><style>.cls-1{fill:url(#Degradado_sin_nombre_12);}.cls-2{fill:#fff;}</style><linearGradient id="Degradado_sin_nombre_12" x1="3.28" y1="57.26" x2="94.13" y2="57.26" gradientUnits="userSpaceOnUse"><stop offset="0" stop-color="#1764bd"/><stop offset="0.18" stop-color="#1c60b8"/><stop offset="0.41" stop-color="#2c54a9"/><stop offset="0.66" stop-color="#454190"/><stop offset="0.92" stop-color="#68266e"/><stop offset="1" stop-color="#741d62"/></linearGradient></defs><title>gfasRecurso 21</title><g id="Capa_2" data-name="Capa 2"><g id="Capa_1-2" data-name="Capa 1"><path class="cls-1" d="M3.28,111.23v-3.34a45.41,45.41,0,0,1,30-42.74,5.55,5.55,0,0,0,2.07-3.76c.07-2.1-1.63-4.21-2.78-5.39a28.84,28.84,0,1,1,31.3.56c-1.37,1.29-2.87,3.12-2.75,4.88a5.51,5.51,0,0,0,2.19,3.45,45.32,45.32,0,0,1,30.78,43v3.34Z"/><path d="M48.71,6.56A25.52,25.52,0,0,1,61.92,53.93c-8.48,7.69-1.19,13.16-.11,13.9a42.16,42.16,0,0,1,29,40.06V108H6.57s0,0,0-.06A42.15,42.15,0,0,1,35.15,68v-.07c6.61-5.77,2.43-11.63-.45-14.47a25.54,25.54,0,0,1,14-46.89m0-6.56A32.09,32.09,0,0,0,30.47,58.51a5.21,5.21,0,0,1,1.64,2.77,2,2,0,0,1-.61,1A48.69,48.69,0,0,0,0,107.89v6.62H97.41v-6.62A48.59,48.59,0,0,0,65,62a2.52,2.52,0,0,1-.58-.78,5.28,5.28,0,0,1,1.5-2.05A32.08,32.08,0,0,0,48.71,0Z"/><path class="cls-2" d="M69.25,32.53a1.51,1.51,0,0,1-1.47-1.2C64.34,14.23,48.38,14,48.22,14a1.5,1.5,0,0,1,0-3c.19,0,18.58.23,22.5,19.7a1.49,1.49,0,0,1-1.17,1.77A1.53,1.53,0,0,1,69.25,32.53Z"/></g></g></svg>